<svg width="25" height="39" viewBox="0 0 25 39" fill="none" xmlns="http://www.w3.org/2000/svg">
<path fill-rule="evenodd" clip-rule="evenodd" d="M21.6462 15.8867L21.0261 20.4128H13.5784V36.2542H9.05224V20.4128H2.26305V15.8867H9.05224V11.7385C9.05224 5.98353 12.5871 2.26305 18.0615 2.26305C20.406 2.26305 21.8679 2.38753 22.7121 2.50067L22.6464 6.78692L19.1658 6.7937C19.0708 6.78465 16.8032 6.60814 15.167 8.11081C14.1124 9.07713 13.5784 10.4666 13.5784 12.2364V15.8867H21.6462V15.8867ZM16.6855 9.78773C17.5772 8.95719 18.9667 9.0477 19.0685 9.05224L24.8755 9.04997L25 0.674393L24.1265 0.459398C23.5652 0.321378 21.8476 0 18.0615 0C11.3198 0 6.78917 4.71848 6.78917 11.7385V13.6236H0V22.6758H6.78917V38.5172H15.8414V22.6758H22.9972L24.2396 13.6236H15.8414V12.2363C15.8414 11.1343 16.1266 10.3105 16.6855 9.78773Z" fill="#FFF1CA"/>
</svg>
