<svg width="31" height="31" viewBox="0 0 31 31" fill="none" xmlns="http://www.w3.org/2000/svg">
<path fill-rule="evenodd" clip-rule="evenodd" d="M15.0666 23.2846C19.6053 23.2846 23.2846 19.6053 23.2846 15.0666C23.2846 10.528 19.6053 6.84863 15.0666 6.84863C10.528 6.84863 6.84863 10.528 6.84863 15.0666C6.84863 19.6053 10.528 23.2846 15.0666 23.2846ZM15.0666 20.5453C18.0924 20.5453 20.5453 18.0924 20.5453 15.0666C20.5453 12.0408 18.0924 9.58796 15.0666 9.58796C12.0408 9.58796 9.58796 12.0408 9.58796 15.0666C9.58796 18.0924 12.0408 20.5453 15.0666 20.5453Z" fill="#FFF1CA"/>
<path d="M23.2847 5.47852C22.5282 5.47852 21.915 6.09174 21.915 6.84818C21.915 7.60462 22.5282 8.21785 23.2847 8.21785C24.0412 8.21785 24.6544 7.60462 24.6544 6.84818C24.6544 6.09174 24.0412 5.47852 23.2847 5.47852Z" fill="#FFF1CA"/>
<path fill-rule="evenodd" clip-rule="evenodd" d="M0.895706 4.4871C0 6.24503 0 8.54628 0 13.1488V16.9838C0 21.5863 0 23.8876 0.895706 25.6455C1.68359 27.1918 2.94078 28.449 4.4871 29.2369C6.24503 30.1326 8.54628 30.1326 13.1488 30.1326H16.9838C21.5863 30.1326 23.8876 30.1326 25.6455 29.2369C27.1918 28.449 28.449 27.1918 29.2369 25.6455C30.1326 23.8876 30.1326 21.5863 30.1326 16.9838V13.1488C30.1326 8.54628 30.1326 6.24503 29.2369 4.4871C28.449 2.94078 27.1918 1.68359 25.6455 0.895706C23.8876 0 21.5863 0 16.9838 0H13.1488C8.54628 0 6.24503 0 4.4871 0.895706C2.94078 1.68359 1.68359 2.94078 0.895706 4.4871ZM16.9838 2.73933H13.1488C10.8023 2.73933 9.20723 2.74147 7.9743 2.84219C6.77332 2.94031 6.15916 3.11817 5.73073 3.33646C4.69985 3.86173 3.86173 4.69985 3.33646 5.73073C3.11817 6.15916 2.94031 6.77332 2.84219 7.9743C2.74147 9.20723 2.73933 10.8023 2.73933 13.1488V16.9838C2.73933 19.3304 2.74147 20.9253 2.84219 22.1583C2.94031 23.3594 3.11817 23.9735 3.33646 24.402C3.86173 25.4328 4.69985 26.2709 5.73073 26.7961C6.15916 27.0144 6.77332 27.1924 7.9743 27.2904C9.20723 27.3911 10.8023 27.3933 13.1488 27.3933H16.9838C19.3304 27.3933 20.9253 27.3911 22.1583 27.2904C23.3594 27.1924 23.9735 27.0144 24.402 26.7961C25.4328 26.2709 26.2709 25.4328 26.7961 24.402C27.0144 23.9735 27.1924 23.3594 27.2904 22.1583C27.3911 20.9253 27.3933 19.3304 27.3933 16.9838V13.1488C27.3933 10.8023 27.3911 9.20723 27.2904 7.9743C27.1924 6.77332 27.0144 6.15916 26.7961 5.73073C26.2709 4.69985 25.4328 3.86173 24.402 3.33646C23.9735 3.11817 23.3594 2.94031 22.1583 2.84219C20.9253 2.74147 19.3304 2.73933 16.9838 2.73933Z" fill="#FFF1CA"/>
</svg>
