<svg width="36" height="27" viewBox="0 0 36 27" fill="none" xmlns="http://www.w3.org/2000/svg">
<path fill-rule="evenodd" clip-rule="evenodd" d="M14.0797 6.12602C13.6208 5.86379 13.057 5.86567 12.5998 6.13096C12.1427 6.39625 11.8613 6.88483 11.8613 7.41338V19.2751C11.8613 19.8037 12.1427 20.2923 12.5998 20.5575C13.057 20.8228 13.6208 20.8247 14.0797 20.5624L24.4586 14.6315C24.9206 14.3676 25.2058 13.8764 25.2058 13.3442C25.2058 12.8121 24.9206 12.3209 24.4586 12.0569L14.0797 6.12602ZM20.7345 13.3442L14.8268 16.7201V9.96837L20.7345 13.3442Z" fill="#FFF1CA"/>
<path fill-rule="evenodd" clip-rule="evenodd" d="M0 13.3444C0 7.78466 0 5.00476 1.41587 3.05598C1.87313 2.42661 2.42661 1.87313 3.05598 1.41586C5.00476 8.83768e-08 7.78466 0 13.3444 0H22.2407C27.8005 0 30.5804 8.83768e-08 32.5292 1.41586C33.1586 1.87313 33.7121 2.42661 34.1694 3.05598C35.5852 5.00476 35.5852 7.78466 35.5852 13.3444C35.5852 18.9042 35.5852 21.6841 34.1694 23.6329C33.7121 24.2623 33.1586 24.8158 32.5292 25.2731C30.5804 26.6889 27.8005 26.6889 22.2407 26.6889H13.3444C7.78466 26.6889 5.00476 26.6889 3.05598 25.2731C2.42661 24.8158 1.87313 24.2623 1.41587 23.6329C0 21.6841 0 18.9042 0 13.3444ZM13.3444 2.96543H22.2407C25.0867 2.96543 26.9829 2.96951 28.4197 3.12517C29.801 3.27482 30.4016 3.53551 30.7862 3.81496C31.1637 4.08932 31.4959 4.4214 31.7703 4.79902C32.0497 5.18365 32.3103 5.78427 32.4601 7.16551C32.6158 8.60223 32.6198 10.4985 32.6198 13.3444C32.6198 16.1904 32.6158 18.0866 32.4601 19.5234C32.3103 20.9047 32.0497 21.5053 31.7703 21.8899C31.4959 22.2674 31.1637 22.5996 30.7862 22.874C30.4016 23.1534 29.801 23.414 28.4197 23.5638C26.9829 23.7195 25.0867 23.7235 22.2407 23.7235H13.3444C10.4985 23.7235 8.60223 23.7195 7.16551 23.5638C5.78427 23.414 5.18365 23.1534 4.79902 22.874C4.4214 22.5996 4.08932 22.2674 3.81496 21.8899C3.53551 21.5053 3.27482 20.9047 3.12517 19.5234C2.96951 18.0866 2.96543 16.1904 2.96543 13.3444C2.96543 10.4985 2.96951 8.60223 3.12517 7.16551C3.27482 5.78427 3.53551 5.18365 3.81496 4.79902C4.08932 4.4214 4.4214 4.08932 4.79902 3.81496C5.18365 3.53551 5.78427 3.27482 7.16551 3.12517C8.60223 2.96951 10.4985 2.96543 13.3444 2.96543Z" fill="#FFF1CA"/>
</svg>
